<svg width="14" height="14" viewBox="0 0 14 14" fill="none" xmlns="http://www.w3.org/2000/svg">
<path d="M7 8.44116C6.59985 8.44116 6.25962 8.301 5.97931 8.02069C5.699 7.74038 5.55884 7.40015 5.55884 7C5.55884 6.59985 5.699 6.25962 5.97931 5.97932C6.25962 5.699 6.59985 5.55884 7 5.55884C7.40015 5.55884 7.74038 5.699 8.02068 5.97932C8.301 6.25962 8.44116 6.59985 8.44116 7C8.44116 7.40015 8.301 7.74038 8.02068 8.02069C7.74038 8.301 7.40015 8.44116 7 8.44116ZM6.38237 3.08824V0.617649C6.38237 0.442648 6.44158 0.295957 6.56001 0.177574C6.67844 0.0591913 6.8252 0 7.00027 0C7.17535 0 7.32201 0.0591913 7.44026 0.177574C7.55851 0.295957 7.61763 0.442648 7.61763 0.617649V3.08824C7.61763 3.26323 7.55842 3.40992 7.43999 3.5283C7.32155 3.64668 7.1748 3.70587 6.99973 3.70587C6.82465 3.70587 6.67799 3.64668 6.55974 3.5283C6.44149 3.40992 6.38237 3.26323 6.38237 3.08824ZM6.38237 13.3824V10.9118C6.38237 10.7368 6.44158 10.5901 6.56001 10.4717C6.67844 10.3533 6.8252 10.2941 7.00027 10.2941C7.17535 10.2941 7.32201 10.3533 7.44026 10.4717C7.55851 10.5901 7.61763 10.7368 7.61763 10.9118V13.3824C7.61763 13.5574 7.55842 13.704 7.43999 13.8224C7.32155 13.9408 7.1748 14 6.99973 14C6.82465 14 6.67799 13.9408 6.55974 13.8224C6.44149 13.704 6.38237 13.5574 6.38237 13.3824ZM10.9118 6.38237H13.3824C13.5574 6.38237 13.704 6.44158 13.8224 6.56001C13.9408 6.67845 14 6.8252 14 7.00027C14 7.17535 13.9408 7.32202 13.8224 7.44026C13.704 7.55851 13.5574 7.61763 13.3824 7.61763H10.9118C10.7368 7.61763 10.5901 7.55842 10.4717 7.43999C10.3533 7.32156 10.2941 7.1748 10.2941 6.99973C10.2941 6.82465 10.3533 6.67799 10.4717 6.55974C10.5901 6.44149 10.7368 6.38237 10.9118 6.38237ZM0.617649 6.38237H3.08824C3.26323 6.38237 3.40992 6.44158 3.5283 6.56001C3.64668 6.67845 3.70587 6.8252 3.70587 7.00027C3.70587 7.17535 3.64668 7.32202 3.5283 7.44026C3.40992 7.55851 3.26323 7.61763 3.08824 7.61763H0.617649C0.442648 7.61763 0.295957 7.55842 0.177574 7.43999C0.0591913 7.32156 0 7.1748 0 6.99973C0 6.82465 0.0591913 6.67799 0.177574 6.55974C0.295957 6.44149 0.442648 6.38237 0.617649 6.38237Z" fill="#3D3D3D"/>
</svg>
